<?xml version="1.0" ?>

<!-- License: CC Attribution. Made by ullycaddy: https://twitter.com/ullycaddy -->
<svg width="800px" height="800px" viewBox="0 0 32 32" version="1.1" xml:space="preserve" xmlns="http://www.w3.org/2000/svg" xmlns:xlink="http://www.w3.org/1999/xlink">

<style type="text/css">
	.st0{stroke:#231F20;stroke-width:2;stroke-linecap:round;stroke-linejoin:round;stroke-miterlimit:10;}
</style>

<g id="Musik_icon">

<g>

<path d="M26,25H6H5H4v1c0,2.76,2.24,5,5,5h14c2.76,0,5-2.24,5-5v-1h-1H26z"/>

<path d="M29.94,13.29C30.59,12.73,31,11.91,31,11c0-1.65-1.35-3-3-3h-0.06h-1.02H5.08H4.06H4c-1.65,0-3,1.35-3,3    c0,0.91,0.41,1.73,1.06,2.29C1.4,14,1,14.96,1,16c0,1.04,0.4,2,1.06,2.71C1.41,19.27,1,20.09,1,21c0,1.65,1.35,3,3,3h1h22h1    c1.65,0,3-1.35,3-3c0-0.91-0.41-1.73-1.06-2.29C30.6,18,31,17.04,31,16C31,14.96,30.6,14,29.94,13.29z M27,20h1c0.55,0,1,0.45,1,1    s-0.45,1-1,1h-1H5H4c-0.55,0-1-0.45-1-1s0.45-1,1-1h1h4.16l-1.43-2H5c-1.1,0-2-0.9-2-2c0-1.06,0.83-1.93,1.88-1.99    C4.92,14,4.96,14,5,14h1.1l2.85,4h0.01l1.42,2h0.01l0.21,0.3c0.19,0.25,0.61,0.25,0.8,0l0.21-0.3h0.01l1.42-2h0.01l2.85-4h1.23H27    c1.1,0,2,0.9,2,2c0,1.1-0.9,2-2,2H14.27l-1.43,2H27z M28,12h-1h-9.88H5H4c-0.55,0-1-0.45-1-1s0.45-1,1-1h1h22h1c0.55,0,1,0.45,1,1    S28.55,12,28,12z"/>

<path d="M6.34,7h19.32h1.05h1.04c-0.9-3.45-4.03-6-7.75-6h-8C8.28,1,5.15,3.55,4.25,7h1.04H6.34z M19,4c0-0.55,0.45-1,1-1    s1,0.45,1,1v1c0,0.55-0.45,1-1,1s-1-0.45-1-1V4z M15,4c0-0.55,0.45-1,1-1s1,0.45,1,1v1c0,0.55-0.45,1-1,1s-1-0.45-1-1V4z M11,4    c0-0.55,0.45-1,1-1s1,0.45,1,1v1c0,0.55-0.45,1-1,1s-1-0.45-1-1V4z"/>

</g>

</g>

</svg>