<?xml version="1.0" encoding="utf-8"?>

<!DOCTYPE svg PUBLIC "-//W3C//DTD SVG 1.1//EN" "http://www.w3.org/Graphics/SVG/1.1/DTD/svg11.dtd">
<!-- Uploaded to: SVG Repo, www.svgrepo.com, Generator: SVG Repo Mixer Tools -->
<svg height="800px" width="800px" version="1.1" id="_x32_" xmlns="http://www.w3.org/2000/svg" xmlns:xlink="http://www.w3.org/1999/xlink" 
	 viewBox="0 0 512 512"  xml:space="preserve">
<style type="text/css">
	.st0{fill:#000000;}
</style>
<g>
	<path class="st0" d="M480.796,360.108c-0.08-2.34-0.177-4.382-0.274-6.102c-0.056-0.864-0.112-1.638-0.193-2.405
		c-0.049-0.436-0.081-0.815-0.146-1.284c-0.064-2.034-0.217-4.043-0.622-6.085c-0.774-3.802-2.3-8.159-6.102-12.017
		c-1.864-1.888-4.285-3.47-6.795-4.43c-2.518-0.969-5.06-1.332-7.304-1.332c-5.173,0.073-8.918,1.566-12.316,3.197
		c-3.382,1.678-6.449,3.728-9.564,6.085l0.008-0.008c-16.069,12.082-26.585,18.232-46.512,25.382
		c-39.523,14.011-85.381,24.132-134.979,24.14c-49.591-0.008-95.454-10.129-134.976-24.14c-19.926-7.15-30.443-13.301-46.512-25.382
		c-3.112-2.349-6.174-4.39-9.552-6.077c-3.394-1.622-7.134-3.132-12.316-3.197c-2.982-0.016-6.546,0.678-9.77,2.478
		c-2.413,1.332-4.512,3.221-6.046,5.231c-2.328,3.042-3.494,6.19-4.18,9.095c-0.549,2.365-0.747,4.665-0.823,6.998
		c-0.068,0.492-0.109,0.896-0.162,1.348c-0.254,2.744-0.399,6.457-0.557,11.25c-0.226,7.094-0.408,16.044-0.532,23.575
		c-0.122,7.57-0.19,13.526-0.19,15.076c-0.012,8.967,1.974,17.716,5.553,25.77c6.299,14.156,17.167,26.189,30.936,36.479
		c20.713,15.408,48.291,27.223,80.554,35.48C179.689,507.456,216.657,512,256.001,512c59.97-0.04,114.355-10.468,155.096-28.684
		c20.371-9.152,37.44-20.258,49.998-33.784c6.264-6.763,11.388-14.172,14.972-22.259c3.575-8.054,5.56-16.803,5.552-25.77
		c0-2.131-0.144-13.494-0.387-25.132C481.119,370.576,480.974,364.781,480.796,360.108z M448.853,415.232
		c-3.519,8.03-10.637,16.578-21.516,24.681c-16.246,12.162-40.596,23.002-70.111,30.491c-29.519,7.538-64.187,11.848-101.224,11.848
		c-56.422,0.04-107.409-10.105-142.933-26.084c-17.768-7.934-31.564-17.328-40.334-26.844c-4.402-4.754-7.558-9.491-9.592-14.092
		c-2.034-4.616-2.998-9.071-3.011-13.728c0-1.501,0.137-13.156,0.376-24.511c0.105-5.109,0.234-10.17,0.375-14.334
		c15.483,11.347,29.869,19.354,50.196,26.488c42.081,14.915,91.26,25.842,144.919,25.85c53.666-0.008,102.841-10.936,144.922-25.85
		c20.331-7.134,34.712-15.141,50.2-26.496c0.452,13.421,0.75,36.617,0.75,38.853C451.855,406.16,450.886,410.615,448.853,415.232z"
		/>
	<path class="st0" d="M116.12,337.398c40.276,15.867,88.253,24.986,139.881,24.995c51.629-0.008,99.602-9.128,139.874-24.995
		c27.118-10.71,61.402-28.046,61.402-56.818c0-33.212-9.45-47.674-31.758-39.354c-10.169,5.707-21.097,10.912-32.678,15.472
		c-40.475,15.972-87.802,24.414-136.84,24.414c-49.038,0-96.364-8.442-136.839-24.414c-11.585-4.56-22.513-9.765-32.683-15.472
		c-22.307-8.32-31.762,6.142-31.762,39.354C54.718,309.352,89.01,326.688,116.12,337.398z"/>
	<path class="st0" d="M464.397,87.753c-17.643-27.537-46.326-49.32-82.031-64.364C346.616,8.353,303.62,0.008,256.333,0L255.8,0.008
		h-0.012l-0.496,0.008v0.008c-62.92,0.193-118.24,15.02-158.917,40.894C76,53.904,59.281,69.755,47.547,88.14
		c-11.735,18.353-18.337,39.337-18.312,61.499v0.161c0.028,13.818,1.102,23.067,2.849,30.088c0.876,3.486,1.949,6.432,3.084,8.846
		c1.117,2.388,2.311,4.261,2.86,5.133c0.965,1.501,1.716,2.316,2.406,3.067c1.287,1.355,2.416,2.324,3.668,3.357
		c4.265,3.463,10.008,7.344,16.008,11.154c6.013,3.778,11.848,7.216,16.55,9.475h0.012c19.261,9.152,46.213,18.756,77.318,26.23
		c31.084,7.458,66.224,12.72,101.542,12.736l0.004-0.016l0.274,0.016h0.335c35.427-0.033,70.684-5.392,101.865-12.938
		c31.202-7.57,58.23-17.279,77.528-26.512c2.776-1.34,6.053-3.115,9.701-5.189c5.44-3.108,11.557-6.812,16.747-10.226
		c2.607-1.711,4.964-3.341,7.03-4.923c1.048-0.791,2.017-1.574,3.042-2.502c1.041-1.025,2.074-1.799,3.802-4.487
		c0.896-1.47,2.002-3.6,2.873-6.053c2.615-7.474,3.988-17.345,4.036-37.4v-0.452C482.766,127.034,476.14,106.073,464.397,87.753z
		 M453.017,149.656c0.008,12.324-0.678,19.701-1.388,23.671c-0.29,1.639-0.549,2.567-0.75,3.189
		c-0.823,0.613-1.994,1.468-3.341,2.372c-3.656,2.494-8.66,5.618-13.366,8.385c-4.672,2.76-9.225,5.254-11.501,6.336
		c-16.851,8.087-42.387,17.344-71.668,24.422c-29.293,7.102-62.44,12.073-94.856,12.106c-0.367,0-0.617,0-0.617,0
		c-32.34,0-65.389-4.898-94.602-11.912c-29.196-6.997-54.647-16.15-71.474-24.164h0.012c-1.53-0.726-4.306-2.227-7.336-4.019
		c-4.576-2.696-9.923-6.11-14.079-9.008c-2.074-1.436-3.866-2.76-4.988-3.672l-0.54-0.46c-0.15-0.258-0.27-0.492-0.42-0.806
		c-0.431-0.936-1.158-2.736-1.852-6.836c-0.686-4.075-1.254-10.322-1.267-19.506v-0.097v-0.016
		c0.024-16.311,4.685-31.395,13.651-45.502c13.41-21.098,36.988-39.822,68.558-53.138c31.52-13.325,70.812-21.194,114.649-21.242
		h0.327l0.165-0.008v0.008c58.364-0.04,108.648,13.913,143.288,35.995c17.336,11.025,30.742,23.987,39.708,38.03
		c8.966,14.075,13.64,29.136,13.688,45.438V149.656z"/>
	<path class="st0" d="M130.647,114.886c-5.65,0.008-10.214,4.132-10.21,9.209c0.008,5.076,4.588,9.184,10.238,9.176
		c5.645-0.007,10.209-4.132,10.202-9.208C140.873,118.986,136.293,114.879,130.647,114.886z"/>
	<path class="st0" d="M255.994,120.165c5.65-0.008,10.217-4.132,10.209-9.217c-0.008-5.077-4.584-9.192-10.234-9.185
		c-5.646,0.008-10.213,4.14-10.205,9.217C245.772,116.065,250.349,120.173,255.994,120.165z"/>
	<path class="st0" d="M256.05,161.262c-5.645,0.008-10.213,4.14-10.206,9.217c0.008,5.084,4.584,9.192,10.23,9.184
		c5.65-0.008,10.218-4.132,10.21-9.216C266.276,165.369,261.7,161.254,256.05,161.262z"/>
	<path class="st0" d="M175.355,75.017c-5.641,0-10.213,4.132-10.205,9.209c0.008,5.084,4.588,9.208,10.23,9.192
		c5.65,0,10.222-4.132,10.213-9.217C185.584,79.126,181.004,75.002,175.355,75.017z"/>
	<path class="st0" d="M255.937,78.14c5.65-0.008,10.218-4.14,10.21-9.225c-0.008-5.076-4.584-9.192-10.234-9.184
		c-5.646,0.008-10.214,4.14-10.206,9.217C245.716,74.033,250.292,78.149,255.937,78.14z"/>
	<path class="st0" d="M198.982,118.422c-5.65,0-10.217,4.124-10.209,9.208c0.004,5.077,4.584,9.192,10.234,9.192
		c5.646-0.016,10.209-4.14,10.205-9.216C209.203,122.522,204.627,118.406,198.982,118.422z"/>
	<path class="st0" d="M381.325,114.548c-5.65,0.008-10.209,4.132-10.202,9.209c0.008,5.076,4.576,9.184,10.226,9.176
		c5.65-0.008,10.218-4.132,10.21-9.201C391.55,118.648,386.974,114.54,381.325,114.548z"/>
	<path class="st0" d="M336.511,74.792c-5.65,0.016-10.222,4.14-10.213,9.216c0.008,5.084,4.588,9.201,10.238,9.201
		c5.641-0.008,10.209-4.14,10.201-9.225C346.729,78.907,342.153,74.792,336.511,74.792z"/>
	<path class="st0" d="M313.006,118.26c-5.646,0.017-10.213,4.132-10.206,9.218c0.004,5.076,4.584,9.201,10.23,9.184
		c5.65,0,10.214-4.132,10.21-9.209C323.231,122.368,318.655,118.26,313.006,118.26z"/>
</g>
</svg>