<?xml version="1.0" standalone="no"?><svg xmlns="http://www.w3.org/2000/svg" viewBox="0 0 1440 320"><path fill="#00b9aa" fill-opacity="1" d="M0,224L40,218.7C80,213,160,203,240,192C320,181,400,171,480,160C560,149,640,139,720,128C800,117,880,107,960,128C1040,149,1120,203,1200,229.3C1280,256,1360,256,1400,256L1440,256L1440,320L1400,320C1360,320,1280,320,1200,320C1120,320,1040,320,960,320C880,320,800,320,720,320C640,320,560,320,480,320C400,320,320,320,240,320C160,320,80,320,40,320L0,320Z"></path></svg>