<?xml version="1.0" standalone="no"?>
<svg xmlns:xlink="http://www.w3.org/1999/xlink" id="wave" style="transform:rotate(0deg); transition: 0.3s" viewBox="0 0 1440 100" version="1.1" xmlns="http://www.w3.org/2000/svg"><defs><linearGradient id="sw-gradient-0" x1="0" x2="0" y1="1" y2="0"><stop stop-color="rgba(0, 185, 170, 1)" offset="0%"/><stop stop-color="rgba(0, 185, 170, 1)" offset="100%"/></linearGradient></defs><path style="transform:translate(0, 0px); opacity:1" fill="url(#sw-gradient-0)" d="M0,70L60,60C120,50,240,30,360,31.7C480,33,600,57,720,70C840,83,960,87,1080,76.7C1200,67,1320,43,1440,31.7C1560,20,1680,20,1800,16.7C1920,13,2040,7,2160,18.3C2280,30,2400,60,2520,66.7C2640,73,2760,57,2880,55C3000,53,3120,67,3240,63.3C3360,60,3480,40,3600,30C3720,20,3840,20,3960,31.7C4080,43,4200,67,4320,71.7C4440,77,4560,63,4680,56.7C4800,50,4920,50,5040,45C5160,40,5280,30,5400,30C5520,30,5640,40,5760,40C5880,40,6000,30,6120,30C6240,30,6360,40,6480,36.7C6600,33,6720,17,6840,8.3C6960,0,7080,0,7200,11.7C7320,23,7440,47,7560,61.7C7680,77,7800,83,7920,86.7C8040,90,8160,90,8280,81.7C8400,73,8520,57,8580,48.3L8640,40L8640,100L8580,100C8520,100,8400,100,8280,100C8160,100,8040,100,7920,100C7800,100,7680,100,7560,100C7440,100,7320,100,7200,100C7080,100,6960,100,6840,100C6720,100,6600,100,6480,100C6360,100,6240,100,6120,100C6000,100,5880,100,5760,100C5640,100,5520,100,5400,100C5280,100,5160,100,5040,100C4920,100,4800,100,4680,100C4560,100,4440,100,4320,100C4200,100,4080,100,3960,100C3840,100,3720,100,3600,100C3480,100,3360,100,3240,100C3120,100,3000,100,2880,100C2760,100,2640,100,2520,100C2400,100,2280,100,2160,100C2040,100,1920,100,1800,100C1680,100,1560,100,1440,100C1320,100,1200,100,1080,100C960,100,840,100,720,100C600,100,480,100,360,100C240,100,120,100,60,100L0,100Z"/></svg>