<?xml version="1.0" standalone="no"?>
<svg xmlns:xlink="http://www.w3.org/1999/xlink" id="wave" style="transform:rotate(0deg); transition: 0.3s" viewBox="0 0 1440 100" version="1.1" xmlns="http://www.w3.org/2000/svg"><defs><linearGradient id="sw-gradient-0" x1="0" x2="0" y1="1" y2="0"><stop stop-color="rgba(0, 185, 170, 1)" offset="0%"/><stop stop-color="rgba(0, 185, 170, 1)" offset="100%"/></linearGradient></defs><path style="transform:translate(0, 0px); opacity:1" fill="url(#sw-gradient-0)" d="M0,0L60,5C120,10,240,20,360,33.3C480,47,600,63,720,70C840,77,960,73,1080,61.7C1200,50,1320,30,1440,33.3C1560,37,1680,63,1800,68.3C1920,73,2040,57,2160,45C2280,33,2400,27,2520,20C2640,13,2760,7,2880,18.3C3000,30,3120,60,3240,66.7C3360,73,3480,57,3600,41.7C3720,27,3840,13,3960,8.3C4080,3,4200,7,4320,20C4440,33,4560,57,4680,66.7C4800,77,4920,73,5040,61.7C5160,50,5280,30,5400,31.7C5520,33,5640,57,5760,66.7C5880,77,6000,73,6120,60C6240,47,6360,23,6480,16.7C6600,10,6720,20,6840,35C6960,50,7080,70,7200,66.7C7320,63,7440,37,7560,23.3C7680,10,7800,10,7920,13.3C8040,17,8160,23,8280,35C8400,47,8520,63,8580,71.7L8640,80L8640,100L8580,100C8520,100,8400,100,8280,100C8160,100,8040,100,7920,100C7800,100,7680,100,7560,100C7440,100,7320,100,7200,100C7080,100,6960,100,6840,100C6720,100,6600,100,6480,100C6360,100,6240,100,6120,100C6000,100,5880,100,5760,100C5640,100,5520,100,5400,100C5280,100,5160,100,5040,100C4920,100,4800,100,4680,100C4560,100,4440,100,4320,100C4200,100,4080,100,3960,100C3840,100,3720,100,3600,100C3480,100,3360,100,3240,100C3120,100,3000,100,2880,100C2760,100,2640,100,2520,100C2400,100,2280,100,2160,100C2040,100,1920,100,1800,100C1680,100,1560,100,1440,100C1320,100,1200,100,1080,100C960,100,840,100,720,100C600,100,480,100,360,100C240,100,120,100,60,100L0,100Z"/></svg>