<?xml version="1.0" standalone="no"?><svg xmlns="http://www.w3.org/2000/svg" viewBox="0 0 1440 320"><path fill="#00b9aa" fill-opacity="1" d="M0,256L34.3,245.3C68.6,235,137,213,206,197.3C274.3,181,343,171,411,149.3C480,128,549,96,617,112C685.7,128,754,192,823,218.7C891.4,245,960,235,1029,224C1097.1,213,1166,203,1234,192C1302.9,181,1371,171,1406,165.3L1440,160L1440,320L1405.7,320C1371.4,320,1303,320,1234,320C1165.7,320,1097,320,1029,320C960,320,891,320,823,320C754.3,320,686,320,617,320C548.6,320,480,320,411,320C342.9,320,274,320,206,320C137.1,320,69,320,34,320L0,320Z"></path></svg>